<svg xmlns="http://www.w3.org/2000/svg" xmlns:xlink="http://www.w3.org/1999/xlink" version="1.1" x="0px" y="0px" viewBox="0 0 100 125" enable-background="new 0 0 100 100" xml:space="preserve"><g><path fill="#000000" d="M91.3457,13.05273c-8.20477,2.78723-13.66663,11.84668-15.23749,14.7439   c-0.98456-0.4187-2.43433-0.82935-3.59357-0.27417c-0.41907,0.19971-0.92511,0.59717-1.20801,1.35486   c-6.33112,2.18933-11.10608,7.05774-15.72363,11.77698c-1.48242,1.51367-2.88184,2.94434-4.33398,4.29395   c-4.08417,3.79541-8.35767,7.63025-13.0083,11.6803c-0.5976-1.93225-1.14026-4.82532-1.06152-8.91663   c0.1709-8.89551,1.29199-13.55859,1.30371-13.60449c0.01855-0.07568,0.01825-0.15161,0.01904-0.22729   c0.00024-0.01978,0.0097-0.03687,0.00879-0.05688c-0.00018-0.00439-0.00281-0.00781-0.00305-0.01221   c-0.00702-0.12085-0.03796-0.23657-0.08649-0.34595c-0.01587-0.03601-0.03888-0.06543-0.05865-0.09912   c-0.03876-0.0658-0.08167-0.1272-0.13519-0.18311c-0.03699-0.03931-0.07556-0.07202-0.11816-0.10474   c-0.02136-0.01624-0.0365-0.03809-0.05939-0.05273c-0.02905-0.01855-0.06213-0.02502-0.09247-0.04028   c-0.05328-0.02734-0.10413-0.05334-0.16205-0.07031c-0.09283-0.02759-0.18756-0.03931-0.28314-0.03931   c-0.01587,0.00037-0.02979-0.00757-0.04584-0.00635c-0.12451,0.00586-3.09082,0.16309-6.27832,2.32715   c-2.90137,1.96973-6.55859,6.04883-7.50537,14.29395c-0.57599,5.01855,1.48572,8.854,4.22968,11.67749l-1.4353,3.30957   l-3.29047-0.30737c-0.35596-0.03418-0.71436,0.13281-0.91943,0.43359L10.95996,81.22168H8.5c-0.55225,0-1,0.44727-1,1   s0.44775,1,1,1h2.98926c0.33105,0,0.64062-0.16406,0.82666-0.4375L23.58838,66.2168l2.05109,0.19165l-7.94952,18.32983h-2.5083   c-0.55225,0-1,0.44727-1,1s0.44775,1,1,1h3.16455c0.39844,0,0.75879-0.23633,0.91748-0.60254l8.47064-19.53162l10.80133,1.00916   c0.01147,0.00098,0.02155-0.00427,0.03296-0.00366c0.02863,0.00244,0.05743,0.01282,0.08588,0.01294   c0.00079,0,0.00146,0.00049,0.00226,0.00049h0.00037h0.00061c0.13385,0,0.2605-0.0354,0.38098-0.08569   c0.03369-0.01404,0.06317-0.03113,0.09528-0.04883c0.09796-0.05396,0.18512-0.12195,0.26074-0.2063   c0.01263-0.01404,0.03131-0.01929,0.04327-0.03418c2.05688-2.5708,4.83813-5.57727,7.64252-8.45386l-1.01117,4.20386   c-0.07715,0.31934,0.0083,0.65723,0.22852,0.90234c0.22021,0.24414,0.54346,0.36719,0.87354,0.32227   c3.71118-0.48694,7.65039-0.948,10.64911-1.25439c0.08728,3.33105,0.24915,13.63159-0.89178,19.04736   c-0.0625,0.29492,0.01172,0.60254,0.20215,0.83594c0.18945,0.23438,0.47461,0.37012,0.77637,0.37012h2.21582   c0.55273,0,1-0.44727,1-1s-0.44727-1-1-1h-1.01367c0.96783-5.94238,0.79425-15.41162,0.70776-18.44666   c1.26379-0.11426,2.21558-0.18115,2.67798-0.1803c0.96777,1.8584,3.72949,12.36621,5.96094,21.96289   c0.10643,0.45801,0.51465,0.77344,0.97266,0.77344c0.0459,0,0.09277-0.00293,0.13867-0.00977   c1.6416-0.22949,3.49316-0.00098,3.5127,0.00195c0.54102,0.07227,1.04785-0.31836,1.11719-0.86719   c0.06934-0.54688-0.31836-1.04785-0.86621-1.11719c-0.07227-0.00879-1.52832-0.19336-3.12695-0.08887   c-5.15527-22.05859-6.30273-22.38477-6.92285-22.5625c-0.47803-0.13428-2.255-0.03357-4.51868,0.17407   c-0.00464,0.00024-0.00891-0.00244-0.01355-0.0022c-0.00818,0.00024-0.01471,0.005-0.02283,0.00549   c-3.23047,0.29724-7.44781,0.81189-10.37268,1.18787l1.3833-5.75c0.0163-0.06763,0.00525-0.13293,0.00745-0.19983   c2.27161-2.26147,4.40265-4.30652,6.00507-5.82227c-0.83008,3.24548,0.23035,4.55408,0.60321,4.89612h0.00012   c0.00122,0.00122,0.00159,0.00281,0.00281,0.00391c0.10712,0.09729,0.23102,0.16016,0.36035,0.20276   c0.0097,0.0033,0.01654,0.01208,0.02637,0.01501c4.11133,1.22852,7.85547,1.68359,11.15039,1.68359   c7.3139,0,12.39502-2.24036,14.31989-3.25305c3.56311,5.49548,1.81921,13.13513,1.80023,13.21497   c-0.12793,0.53711,0.2041,1.07617,0.74023,1.2041c0.07812,0.01953,0.15625,0.02832,0.2334,0.02832   c0.45215,0,0.86133-0.30859,0.97168-0.7666c0.09045-0.37646,2.1452-9.25891-2.59149-15.53931   c-0.00018-0.00024-0.00012-0.00049-0.00012-0.00049c-0.00043-0.00061-0.00073-0.00073-0.00098-0.0011   c-0.01733-0.02307-0.03052-0.04749-0.04803-0.07043c-0.06317-0.08252-0.13885-0.15381-0.22327-0.21265   c-0.00641-0.00439-0.01404-0.00586-0.02051-0.01013c-0.07623-0.05054-0.15747-0.09412-0.24548-0.12195   c-0.34668-0.11035-8.19531-2.54395-21.65039-0.47168c2.4541-3.26074,6.8623-9.71582,7.39453-14.64453   c0.00336-0.03101-0.00867-0.05884-0.00818-0.08936c1.68219-1.01099,3.328-1.83813,4.2627-2.28687   c1.1496,1.75684,2.53033,3.32544,2.97888,3.81958c0.19238,0.21191,0.46289,0.32812,0.74023,0.32812   c0.09375,0,0.18945-0.01367,0.28223-0.04102c0.36719-0.10742,0.6416-0.41699,0.7041-0.79492   c0.86658-5.20129,0.6004-7.37122,0.18066-8.33142c1.21808-2.27869,6.52905-11.46338,14.27539-14.09436   c0.52344-0.17773,0.80273-0.74609,0.62598-1.26855C92.43652,13.15527,91.87012,12.87695,91.3457,13.05273z M34.22852,35.76379   c-0.93494,1.10583-1.98157,2.5387-2.91296,4.25964c-0.45392-0.27307-1.03082-0.57129-1.65131-0.78333   C31.15924,37.44751,32.81647,36.38794,34.22852,35.76379z M28.42285,40.98462c0.65314,0.07812,1.44647,0.49146,2.01086,0.84448   c-0.49738,1.14746-0.92078,2.39893-1.22845,3.74121c-0.68781-0.32336-1.60315-0.71729-2.43378-0.97021   C27.23676,43.20496,27.79932,42.00854,28.42285,40.98462z M25.66992,49.71875c0.13263-1.15552,0.32483-2.21265,0.55756-3.19556   c0.85535,0.26599,1.92657,0.75452,2.61737,1.09473c-0.17383,1.40186-0.21442,2.88708-0.06506,4.45532   c0.03381,0.35522,0.0932,0.68066,0.13977,1.02124c-0.87775-0.40649-2.01367-0.84668-3.30023-1.1709   C25.5719,51.21802,25.58191,50.48511,25.66992,49.71875z M25.98389,54.10107c1.59711,0.50293,2.85016,1.16187,3.40076,1.47876   c0.70721,2.85742,1.85156,5.10303,3.09637,6.83899C29.75146,60.54883,26.98352,57.81726,25.98389,54.10107z M28.57184,64.67297   l0.89435-2.06213c1.16486,0.97778,2.3786,1.79944,3.52545,2.4751L28.57184,64.67297z M79.4823,52.86707   c-3.64246,1.474-11.02826,3.48669-20.61859,1.04163l0.43292-0.4762C68.87866,51.67358,75.88617,52.27124,79.4823,52.86707z    M58.0296,51.85205l-0.56696,0.62354c-0.01294-1.70947,0.91675-5.37646,6.33423-12.36816   c0.58087-0.74951,1.45886-1.51172,2.45215-2.2373C64.63177,43.86218,58.18793,51.66162,58.0296,51.85205z M62.2168,38.88281   c-2.17767,2.80994-3.68823,5.1571-4.72589,7.12012c-0.09039,0.04199-0.18121,0.08472-0.25848,0.15527   c-0.12598,0.11621-12.35205,11.31934-18.82373,19.18359c-1.82324-1.12402-6.82812-4.95312-7.6377-13.45801   c-0.65967-6.92383,2.79688-12.24609,5.19922-15.04492c-0.32959,2.33984-0.69678,5.9541-0.79102,10.83398   c-0.18066,9.40039,2.80322,13.19629,2.93018,13.35254c0.34766,0.42871,0.97803,0.49316,1.40674,0.14844   c0.4292-0.34766,0.49512-0.97754,0.14795-1.40625c-0.00867-0.01074-0.29114-0.37561-0.66162-1.14929   c4.88605-4.24475,9.34467-8.24219,13.60791-12.2052c1.4873-1.38184,2.96875-2.89648,4.40137-4.36035   c4.28693-4.38123,8.71039-8.90137,14.28687-11.05249c0.12408,0.42603,0.30188,0.87048,0.52356,1.32336   C69.63324,33.37817,64.36932,36.10303,62.2168,38.88281z M75.86621,34.85449c-1.59277-2.02539-2.8916-4.17676-2.75-5.04492   c0.0625-0.38867,0.20117-0.4541,0.25977-0.48242c0.10449-0.0498,0.24609-0.07324,0.41309-0.07324   c0.5459,0,1.375,0.25195,2.14551,0.6709C76.17383,30.49414,76.13184,32.52832,75.86621,34.85449z"/></g><text x="0" y="115" fill="#000000" font-size="5px" font-weight="bold" font-family="'Helvetica Neue', Helvetica, Arial-Unicode, Arial, Sans-serif">Created by Yu luck</text><text x="0" y="120" fill="#000000" font-size="5px" font-weight="bold" font-family="'Helvetica Neue', Helvetica, Arial-Unicode, Arial, Sans-serif">from the Noun Project</text></svg>